Coordinates
version=1
nRows=16
nColumns=36
inDegrees=yes

Units are S.I. units (second, meters, Newtons, ...)
If the header above contains a line with 'inDegrees', this indicates whether rotational values are in degrees (yes) or radians (no).

endheader
time	pelvis_tilt	pelvis_list	pelvis_rotation	pelvis_tx	pelvis_ty	pelvis_tz	hip_flexion_r	hip_adduction_r	hip_rotation_r	knee_angle_r	knee_angle_r_beta	ankle_angle_r	subtalar_angle_r	mtp_angle_r	hip_flexion_l	hip_adduction_l	hip_rotation_l	knee_angle_l	knee_angle_l_beta	ankle_angle_l	subtalar_angle_l	mtp_angle_l	lumbar_extension	lumbar_bending	lumbar_rotation	arm_flex_r	arm_add_r	arm_rot_r	elbow_flex_r	pro_sup_r	arm_flex_l	arm_add_l	arm_rot_l	elbow_flex_l	pro_sup_l
      3.53333330	    -29.40339692	      3.95467898	      1.32056132	     -0.09242146	      1.17348489	     -0.01621114	     25.28895683	     -1.73827444	     -0.71374578	     29.52354105	      0.51528300	     22.05109843	    -18.42499172	     -7.49999987	     32.95462420	      1.27908706	      2.32041621	     44.58438923	      0.77814439	     23.54567042	     -6.92887693	     -7.49999987	      3.65058155	     -5.00033361	     -2.07403223	     76.34019783	     -9.07357154	     16.77774147	     87.70004186	     93.65426399	     70.76765392	    -15.59881804	     20.76207749	    100.87278203	     92.65415499
      3.55000000	    -28.61103130	      4.04898113	      1.68891727	     -0.08464641	      1.18787742	     -0.01432309	     22.36270679	     -2.09713027	     -1.20004477	     25.95247672	      0.45295617	     17.31157962	    -18.92953872	     -7.49999987	     31.31973308	      0.70367929	      1.29497327	     44.82335172	      0.78231507	     17.16821971	     -7.63549779	     -7.49999987	      3.11528726	     -5.04022420	     -2.57962304	     82.92170259	    -10.68346147	     18.58084229	     87.99571551	     90.81531493	     76.78571727	    -17.08266306	     22.77125090	     99.35388005	     90.19208512
      3.56666670	    -28.06353356	      4.62087708	      1.50161449	     -0.06977650	      1.20196724	     -0.01466728	     20.40583309	     -2.74238364	     -1.04002927	     23.49775962	      0.41011327	     12.94897378	    -18.13547687	     -7.49999987	     31.28839100	      0.56103479	      0.44185485	     46.37273098	      0.80935684	     12.20882856	     -7.96727293	     -7.49999987	      2.34834225	     -5.66147067	     -2.42750479	     88.64532002	    -11.86731182	     19.34298083	     86.11896625	     88.96954424	     81.44479577	    -18.04588012	     23.91913154	     99.18569689	     88.99287236
      3.58333330	    -27.41988355	      5.26732930	      1.41712553	     -0.04994473	      1.21301225	     -0.01252874	     19.74909754	     -3.56213320	     -1.51376973	     25.31942929	      0.44190741	      9.63279218	    -17.77118332	     -7.49999987	     32.69646254	      0.21008084	     -0.78519463	     49.51953180	      0.86427887	      7.41132444	     -8.39280786	     -7.49999987	      1.73692246	     -6.32435016	     -1.60934328	     91.67533447	    -13.36554397	     18.67751404	     89.13915403	     88.07354975	     83.20893458	    -19.14008862	     22.86660144	    103.21624365	     88.44811062
      3.60000000	    -26.38640987	      5.57737135	      2.51257414	     -0.02329374	      1.22524640	     -0.01419733	     18.83315034	     -4.35598536	     -1.83737065	     28.44883788	      0.49652589	      6.94170441	    -19.55826076	     -7.49999987	     33.14857762	      0.00868861	     -1.31231715	     51.79586620	      0.90400840	      3.88941702	     -8.79184382	     -7.49999987	      0.73905985	     -6.60958901	     -1.29660414	     93.67884924	    -14.82589923	     18.92117111	     91.83807021	     87.64388118	     83.51047159	    -20.69828397	     22.03993061	    106.17202250	     88.22961649
      3.61666670	    -25.23475657	      5.54185199	      3.29730998	     -0.01019538	      1.23404657	     -0.01598398	     18.89463245	     -4.57983106	     -0.75425442	     33.42727007	      0.58341592	      5.26687941	    -20.93714104	     -7.49999987	     34.48835203	      0.25364269	     -0.86228233	     55.15459404	      0.96262926	      4.95606740	     -9.22169576	     -7.49999987	     -0.68253295	     -6.72091053	     -1.27976249	     94.66452716	    -15.81162400	     18.60203238	     94.99502817	     86.12705481	     83.51370289	    -21.23263308	     21.30931583	    109.55194308	     86.73742606
      3.63333330	    -23.38948079	      5.41896812	      3.05771311	      0.00899506	      1.24103851	     -0.01921580	     20.01710248	     -4.97103276	      0.65905392	     42.27408870	      0.73782204	      4.07888704	    -20.30120218	     -7.49999987	     34.92595838	     -0.07088562	     -1.55400691	     58.63699351	      1.02340860	      7.01256374	     -8.41574656	     -7.49999987	     -2.46929710	     -6.28115762	     -1.33081678	     93.29424409	    -15.80467984	     17.64327097	     99.13018354	     90.90863068	     81.72019109	    -21.41286969	     19.36132148	    113.41261959	     91.04486039
      3.65000000	    -22.26559006	      5.35103895	      3.35267578	      0.02041758	      1.24005066	     -0.02038752	     21.78767615	     -5.14007768	      1.91859765	     50.46035247	      0.88069929	      5.07705356	    -19.60380184	     -7.49999987	     36.49620522	     -0.43642032	     -1.99845804	     60.66658914	      1.05883173	      8.09354032	     -8.41227581	     -7.49999987	     -4.29199824	     -6.08991794	     -1.71963349	     92.14856158	    -15.52144211	     16.35667550	    103.07363199	     89.91983748	     80.91152041	    -20.99818204	     19.12054155	    115.42388522	     90.06960608
      3.66666670	    -21.23975917	      4.89185968	      3.77246452	      0.02094088	      1.23745234	     -0.02038605	     25.89306163	     -5.06388747	      2.28602245	     60.31271647	      1.05265548	     10.27801084	    -19.35491053	     -7.49999987	     40.76093337	     -1.02034191	     -2.00352064	     64.61747013	      1.12778761	     10.52771170	     -7.99177121	     -7.49999987	     -7.40760007	     -5.39068476	     -2.36339587	     92.94624066	    -14.72197052	     14.96863880	    105.19518562	     88.76394807	     82.85225021	    -20.05075965	     19.09924608	    113.57900790	     88.94491661
      3.68333330	    -21.15911918	      4.07211718	      3.89586943	      0.03311660	      1.23640190	     -0.02144562	     30.41498733	     -4.55512640	      2.91548833	     68.34067262	      1.19276975	     14.49039418	    -17.30655701	     -7.49999987	     44.17112604	     -2.20258440	     -2.32736402	     67.41526469	      1.17661834	     10.96989524	     -8.02701192	     -7.49999987	     -9.27944777	     -4.12257465	     -2.17584675	     92.45229718	    -15.08670616	     13.57032086	    106.14812455	     88.61329110	     82.99478516	    -19.32156766	     18.81679379	    112.07710521	     88.74008662
      3.70000000	    -20.85005860	      3.06699559	      3.83285613	      0.05353834	      1.23525422	     -0.01407486	     33.52330386	     -3.59882333	      2.47990523	     73.41492667	      1.28133219	     15.97557181	    -16.39701427	     -7.49999987	     45.77778356	     -4.14178358	     -3.34798518	     65.47070327	      1.14267934	      7.33360306	    -10.66936077	     -7.49999987	    -10.59540872	     -3.10039673	     -2.01898609	     89.71171477	    -14.24948221	     12.34068478	    108.49534574	     89.62533707	     81.23045358	    -19.57459800	     18.78218575	    112.10182980	     89.65977647
      3.71666670	    -20.48651381	      2.46931836	      3.71900414	      0.05931447	      1.23321043	     -0.01222594	     36.85462979	     -3.17662266	      1.79364990	     76.55501928	      1.33613715	     15.51999462	    -16.93084181	     -7.49999987	     46.72134657	     -5.28561274	     -3.88916356	     60.85192537	      1.06206645	      4.25590949	    -10.36028421	     -7.49999987	    -12.21551302	     -2.35917671	     -1.81312286	     87.57890865	    -12.67403584	     12.53763058	    108.61917902	     92.55333297	     78.67589580	    -20.22790387	     18.74269807	    112.43274407	     91.57183761
      3.73333330	    -19.78712421	      2.17201445	      3.30839071	      0.08375156	      1.22431920	     -0.01360604	     38.86674046	     -3.05217263	      1.48688719	     76.96253040	      1.34324956	     13.26108807	    -15.41972464	     -7.49999987	     46.16684262	     -6.74708145	     -5.00191826	     55.27990083	      0.96481628	      0.27139734	     -7.84756024	     -7.49999987	    -13.38098879	     -2.21972604	     -1.42773700	     84.86813971	    -12.31026357	     12.82065025	    108.30533039	     91.68409180	     76.41308478	    -19.82132360	     19.29660485	    109.85658901	     90.69346721
      3.75000000	    -20.14808221	      2.33381674	      2.81507079	      0.09331209	      1.20534781	     -0.01963780	     42.42997268	     -3.83238518	      1.41955838	     76.04527106	      1.32724036	     11.04502678	    -15.16939632	     -7.49999987	     46.76000400	     -6.97049697	     -6.58046449	     49.30268581	      0.86049420	     -2.63508446	     -5.46420548	     -7.49999987	    -13.72366959	     -2.36516938	     -0.21001080	     84.91291330	    -12.74345478	     12.44999767	    105.61767966	     91.14767533	     75.71153174	    -17.39767514	     19.43106695	    106.80956432	     89.93888103
      3.76666670	    -20.52307231	      2.49717935	      1.58629250	      0.10116675	      1.19409353	     -0.02135143	     45.36699482	     -4.27636312	      1.95138001	     72.52771552	      1.26584743	      7.58198457	    -14.02581675	     -7.49999987	     46.93062584	     -6.71031912	     -6.84172137	     42.87556239	      0.74831973	     -5.21343710	     -1.84940825	     -7.49999987	    -14.64751462	     -2.14672627	      0.92316534	     85.28208221	    -12.75315955	     13.49768396	    105.51434237	     91.08100456	     74.66813177	    -16.80204184	     19.78065885	    106.84700280	     89.76855767
      3.78333330	    -20.75468377	      2.85123666	      1.51555669	      0.11867193	      1.16850670	     -0.02420006	     46.49356208	     -5.25340997	      1.55171317	     66.68887085	      1.16394037	      7.41522439	    -11.22429106	     -7.49999987	     47.08744313	     -6.17233539	     -7.06264435	     36.88658345	      0.64379233	    -10.28685800	     -0.72560609	     -7.49999987	    -15.24862895	     -2.12188941	      0.40692295	     85.26148877	    -12.61082213	     14.26182507	    106.23711261	     91.22567936	     75.04858117	    -16.81843093	     20.45379672	    108.25986841	     89.78321664
